<svg id="Layer_1" data-name="Layer 1" xmlns="http://www.w3.org/2000/svg" viewBox="0 0 519.91 212.64"><defs><style>.cls-1{fill:#f3702d;}.cls-2{fill:none;stroke:#f3702d;stroke-miterlimit:10;stroke-width:2.74px;}</style></defs><title>awsugnLogo</title><path class="cls-1" d="M404.53,464.85,389.59,363a10.61,10.61,0,0,0-10.46-9.07l-112.78-.47a10.63,10.63,0,0,0-10.48,8.66l-19,101.39a10.62,10.62,0,0,0,10.37,12.57L394,477A10.63,10.63,0,0,0,404.53,464.85ZM311.4,441.29a32.59,32.59,0,0,1-6.29,10.26,39.23,39.23,0,0,1-9.18,7.44,53.81,53.81,0,0,1-10.48,4.78A45.91,45.91,0,0,1,275.13,466a30.74,30.74,0,0,1-8.55-.29c-.51-.07-1-.94-1.36-2.59a44.1,44.1,0,0,1-1-6q-.34-3.48-.41-7.52t0-7.54a43.48,43.48,0,0,1,.52-5.83c.26-1.53.6-2.32,1-2.34q2.43-.14,6.37-.51a46,46,0,0,0,7.62-1.34,21.53,21.53,0,0,0,6.26-2.63,4.72,4.72,0,0,0,2.42-4.4,6,6,0,0,0-2.39-4.59,23.85,23.85,0,0,0-5.58-3c-2.24-.89-4.62-1.8-7.16-2.72a34.12,34.12,0,0,1-7.21-3.64,19.11,19.11,0,0,1-5.75-6,20.67,20.67,0,0,1-2.69-9.83A24.42,24.42,0,0,1,259.68,383a29.81,29.81,0,0,1,17.88-15.55,28.3,28.3,0,0,1,12.13-1.21c1.13.14,1.92,1.17,2.38,3.07a30.5,30.5,0,0,1,.8,6.2,32.08,32.08,0,0,1-.34,6.12c-.31,1.84-.66,2.78-1.06,2.8l-3.35.19a9.67,9.67,0,0,0-3.38.79,6.58,6.58,0,0,0-2.62,2.13,6,6,0,0,0-.92,4q.23,4.24,2.55,6.26a18.63,18.63,0,0,0,5.75,3.26c2.28.84,4.74,1.66,7.38,2.48a24.42,24.42,0,0,1,7.45,3.86,21.3,21.3,0,0,1,6,7.43c1.65,3.21,2.63,7.66,2.95,13.32A31.21,31.21,0,0,1,311.4,441.29ZM381,452.55a27.41,27.41,0,0,1-4.57,1.47,49.84,49.84,0,0,1-6,1.1,47.06,47.06,0,0,1-5.92.41,24.53,24.53,0,0,1-4.59-.36c-1.24-.23-1.82-.66-1.75-1.27.11-1.73.19-3.49.24-5.27s.13-3.54.24-5.28a42.34,42.34,0,0,1-8.28,10.07,16.68,16.68,0,0,1-10.27,4.38,11.73,11.73,0,0,1-9.75-4,32.46,32.46,0,0,1-6.42-11.3,82.45,82.45,0,0,1-3.69-15.56q-1.25-8.62-1.71-16.9c-.3-5.53-.46-10.54-.45-15.07s0-7.94,0-10.28a3.07,3.07,0,0,1,1.54-2.45,17.24,17.24,0,0,1,4.06-2.21,40.49,40.49,0,0,1,5.32-1.66,30.83,30.83,0,0,1,5.29-.84,15.11,15.11,0,0,1,4,.24c1.08.24,1.64.77,1.69,1.58,0,2.23,0,5.18,0,8.84s0,7.56,0,11.73.11,8.35.25,12.56.39,8,.78,11.46a37.24,37.24,0,0,0,1.77,8.36c.78,2.14,1.77,3.18,3,3.11a6.3,6.3,0,0,0,5-2.48,21.4,21.4,0,0,0,3.52-6.53,53.59,53.59,0,0,0,2.3-9.19c.58-3.44,1-6.94,1.25-10.51s.39-7,.41-10.39,0-6.34,0-9a8.34,8.34,0,0,0,.05-1.68c0-.6-.06-1.16-.09-1.67,0-1,.79-1.77,2.54-2.27a20.87,20.87,0,0,1,5.75-.78,26.52,26.52,0,0,1,5.74.52c1.75.36,2.65.89,2.69,1.6q.64,9,1.76,18t2.3,17.85q1.17,8.78,2.23,16.87t1.45,15.09C382.77,451.46,382.19,452,381,452.55Z" transform="translate(-37.7 -314.08)"/><path class="cls-1" d="M100.1,335.76q1.34,8.76,3.24,19T107.43,376q2.19,11,4.66,22T117,419.33q2.37,10.29,4.57,19t4.09,15.23c0,.26-.64.7-1.9,1.33a37.55,37.55,0,0,1-5,2c-2.09.7-4.35,1.33-6.76,1.91a48.16,48.16,0,0,1-6.85,1.14,19.92,19.92,0,0,1-5.62-.19c-1.58-.31-2.5-1.05-2.76-2.19-.5-2.29-1.11-5.58-1.81-9.9s-1.42-9.26-2.18-14.85l-22.85,4.57q-2.28,12.57-4,23.13t-2.28,16.09c-.13,1.14-.89,1.77-2.29,1.9a14.57,14.57,0,0,1-5.14-.66,37,37,0,0,1-6.47-2.58,44.64,44.64,0,0,1-6.19-3.71A23.36,23.36,0,0,1,39,467.5q-1.71-2.1-1.14-3.81,1.89-6.85,4.85-17.23T49,424.09q3.33-12,7.05-24.94t7.23-25Q66.79,362,70,351.84c2.16-6.78,4.06-12.47,5.71-17,.51-1.4,2-2.41,4.57-3.05a30.81,30.81,0,0,1,8.09-.86,25.18,25.18,0,0,1,7.81,1.34C98.54,333.06,99.84,334.24,100.1,335.76Zm-9.33,82.43q-1.33-10.28-2.47-20.56T86.2,379q-1.14-9.71-2.09-18.84-1.71,8.94-3.62,19-1.53,8.58-3.62,19.42t-4.18,22.28Z" transform="translate(-37.7 -314.08)"/><path class="cls-1" d="M216.8,363.17c.76-.5,2.57-.76,5.43-.76a71.6,71.6,0,0,1,8.85.57,57.59,57.59,0,0,1,8.28,1.62q3.7,1,3.71,2.57a45.71,45.71,0,0,1-1,5.43q-1,4.66-2.76,11.8t-4,16.09q-2.29,8.94-4.76,18.27t-5,18.28q-2.57,9-5,16.09c-1.59,4.75-3,8.66-4.28,11.7s-2.29,4.83-3,5.33a13.65,13.65,0,0,1-6.76,1.34,43.91,43.91,0,0,1-9-1,33,33,0,0,1-8.18-2.76q-3.63-1.8-4.38-3.9a31,31,0,0,1-1.34-4.66q-.75-3.33-1.61-7.71t-1.72-9.14q-.85-4.75-1.62-8.95-1.71,5.52-3.9,11.9t-4.28,12a98.53,98.53,0,0,1-4.1,9.62c-1.33,2.66-2.44,4.19-3.33,4.57a12.19,12.19,0,0,1-5.33.95,26,26,0,0,1-6.66-.86,19.35,19.35,0,0,1-5.71-2.47,4.65,4.65,0,0,1-2.48-3.9c-.12-1-.6-3.75-1.42-8.19s-1.88-9.77-3.15-16-2.6-13-4-20.18-2.7-14.15-3.91-20.75-2.16-12.44-2.85-17.52a61.41,61.41,0,0,1-.86-10.47q0-.94,4.28-2a76.44,76.44,0,0,1,9.33-1.62,60.68,60.68,0,0,1,9.33-.38c2.86.13,4.41.64,4.67,1.53q.18.94,1,6.47t2,13.13q1.14,7.62,2.48,15.81T162,419.71q1.34-4.75,3.14-10.28c1.21-3.67,2.38-7.2,3.53-10.56s2.15-6.31,3-8.85a26.25,26.25,0,0,1,2.1-4.95c.76-1.15,2.31-2,4.66-2.57a34.1,34.1,0,0,1,7.23-.95,31.9,31.9,0,0,1,6.76.47c2,.38,3.17,1,3.43,1.71.12.51.38,2.07.76,4.67s.86,5.74,1.43,9.42,1.17,7.71,1.81,12.09,1.26,8.6,1.9,12.66q1.91-8.56,4.28-18.75t4.48-19q2.08-8.85,3.8-14.94C215.47,365.77,216.29,363.55,216.8,363.17Z" transform="translate(-37.7 -314.08)"/><path class="cls-1" d="M472.14,390.4q.18,4.56.47,12.56t.48,17.9q.18,9.9-.19,21.13t-1.71,22.37a170.79,170.79,0,0,1-4,21.61,89.25,89.25,0,0,1-7.05,18.94,49.57,49.57,0,0,1-10.85,14.28,31.43,31.43,0,0,1-15.42,7.52q-1.33.18-4-1.72a46.26,46.26,0,0,1-5.72-5,87.38,87.38,0,0,1-6-6.66,47.35,47.35,0,0,1-4.76-6.86,14.09,14.09,0,0,1-2-5.51c-.13-1.53.63-2.35,2.28-2.48a38.76,38.76,0,0,0,15.8-4.09,36.74,36.74,0,0,0,11.24-9.05,45.54,45.54,0,0,0,7.33-12.66,88.34,88.34,0,0,0,4.28-15.13,28.11,28.11,0,0,1-6.28,7,15.13,15.13,0,0,1-8.38,3.24,20.88,20.88,0,0,1-11.52-2,23.41,23.41,0,0,1-8.66-7.81,43.68,43.68,0,0,1-5.81-12.84,97.73,97.73,0,0,1-3.14-17.14,49.22,49.22,0,0,1,.95-16.94,41.17,41.17,0,0,1,5.53-13,29.8,29.8,0,0,1,8.37-8.57,22.07,22.07,0,0,1,9.71-3.71,16,16,0,0,1,12.18,3.23,32.28,32.28,0,0,1,8.19,10.09c-.13-1.9-.22-3.71-.28-5.42s-.1-3.33-.1-4.86c0-1.14.95-1.93,2.86-2.38a21.31,21.31,0,0,1,6.47-.38,24.38,24.38,0,0,1,6.66,1.43C471.12,388.3,472.14,389.25,472.14,390.4Zm-32.37,51q1.91-.19,3.34-3.14A26,26,0,0,0,445.2,431a54.15,54.15,0,0,0,.57-9.23,43.06,43.06,0,0,0-1-9,16.9,16.9,0,0,0-2.85-6.57,4.9,4.9,0,0,0-4.76-2.1,5.81,5.81,0,0,0-4.28,3.43,21.54,21.54,0,0,0-2.19,7.24,41.4,41.4,0,0,0-.19,9,44.9,44.9,0,0,0,1.52,8.85,19.32,19.32,0,0,0,3.14,6.57A4.86,4.86,0,0,0,439.77,441.42Z" transform="translate(-37.7 -314.08)"/><path class="cls-1" d="M537.06,366.22A13.52,13.52,0,0,1,548.67,372,41.08,41.08,0,0,1,555,387a107.54,107.54,0,0,1,2.48,20.27q.38,11.14,0,21.71t-1,19.32q-.57,8.76-.57,13.14c0,1.14-1,2-2.95,2.57a25.94,25.94,0,0,1-6.57.95,31.92,31.92,0,0,1-6.66-.48q-3-.57-3.24-1.71a83.47,83.47,0,0,1-.85-9c-.19-3.75-.38-7.74-.57-12s-.42-8.53-.67-12.85a116.69,116.69,0,0,0-1.24-11.7,33.83,33.83,0,0,0-2.38-8.57c-1-2.22-2.28-3.4-3.8-3.52a6.94,6.94,0,0,0-5.62,2.57,30.26,30.26,0,0,0-4.85,7.52,76.08,76.08,0,0,0-4.1,10.66q-1.81,5.9-3.33,12-.76,9.7-1.14,18.18t-.76,14.75q0,2.1-3.27,2.77a29.11,29.11,0,0,1-7.2.47,36.25,36.25,0,0,1-7.3-1.05c-2.25-.57-3.37-1.3-3.37-2.19q0-7.41-.09-16.46t-.19-18.66q-.11-9.62-.19-19.51t-.19-19q-.11-9.13-.19-17c-.07-5.26-.1-9.87-.1-13.8,0-.64.77-1.27,2.3-1.91a27,27,0,0,1,5.77-1.52q3.45-.57,7.58-.85a62.79,62.79,0,0,1,7.57-.1,31.56,31.56,0,0,1,5.72.76c1.52.38,2.22.95,2.09,1.71q-.57,3.82-1,8.29T514,382a60.11,60.11,0,0,1,10.66-11.23A19.4,19.4,0,0,1,537.06,366.22Z" transform="translate(-37.7 -314.08)"/><path class="cls-2" d="M346.69,355.08H296.35c0-21.89,11.26-39.63,25.17-39.63S346.69,333.19,346.69,355.08Z" transform="translate(-37.7 -314.08)"/></svg>